<svg xmlns="http://www.w3.org/2000/svg" xmlns:xlink="http://www.w3.org/1999/xlink" width="24px" height="24px" viewBox="0 0 24 24" version="1.1">
<g id="surface1">
<path style=" stroke:none;fill-rule:nonzero;fill:rgb(100%,100%,100%);fill-opacity:0;" d="M 5.410156 0 L 18.589844 0 C 21.578125 0 24 2.421875 24 5.410156 L 24 18.589844 C 24 21.578125 21.578125 24 18.589844 24 L 5.410156 24 C 2.421875 24 0 21.578125 0 18.589844 L 0 5.410156 C 0 2.421875 2.421875 0 5.410156 0 Z M 5.410156 0 "/>
<path style=" stroke:none;fill-rule:nonzero;fill:rgb(100%,100%,100%);fill-opacity:1;" d="M 20 10.867188 C 20 7.289062 16.410156 4.375 11.996094 4.375 C 7.585938 4.375 3.996094 7.289062 3.996094 10.867188 C 3.996094 14.078125 6.847656 16.769531 10.6875 17.277344 C 10.949219 17.332031 11.304688 17.445312 11.390625 17.671875 C 11.472656 17.871094 11.445312 18.191406 11.417969 18.394531 C 11.417969 18.394531 11.324219 18.957031 11.304688 19.078125 C 11.269531 19.28125 11.144531 19.871094 11.996094 19.511719 C 12.851562 19.152344 16.605469 16.796875 18.285156 14.863281 C 19.445312 13.59375 20 12.300781 20 10.867188 Z M 20 10.867188 "/>
<path style=" stroke:none;fill-rule:nonzero;fill:rgb(36, 35, 49);fill-opacity:1;" d="M 17.335938 12.9375 L 15.085938 12.9375 C 15.003906 12.9375 14.9375 12.871094 14.9375 12.785156 L 14.9375 9.296875 C 14.9375 9.210938 15.003906 9.144531 15.085938 9.144531 L 17.335938 9.144531 C 17.417969 9.144531 17.488281 9.210938 17.488281 9.296875 L 17.488281 9.863281 C 17.488281 9.945312 17.417969 10.011719 17.335938 10.011719 L 15.808594 10.011719 L 15.808594 10.601562 L 17.335938 10.601562 C 17.417969 10.601562 17.488281 10.667969 17.488281 10.753906 L 17.488281 11.324219 C 17.488281 11.40625 17.417969 11.476562 17.335938 11.476562 L 15.808594 11.476562 L 15.808594 12.066406 L 17.335938 12.066406 C 17.417969 12.066406 17.488281 12.132812 17.488281 12.214844 L 17.488281 12.78125 C 17.488281 12.820312 17.472656 12.863281 17.445312 12.890625 C 17.417969 12.921875 17.378906 12.9375 17.335938 12.9375 Z M 17.335938 12.9375 "/>
<path style=" stroke:none;fill-rule:nonzero;fill:rgb(36, 35, 49);fill-opacity:1;" d="M 9.023438 12.9375 C 9.105469 12.9375 9.171875 12.871094 9.171875 12.785156 L 9.171875 12.21875 C 9.171875 12.136719 9.105469 12.070312 9.023438 12.070312 L 7.492188 12.070312 L 7.492188 9.292969 C 7.492188 9.210938 7.425781 9.144531 7.34375 9.144531 L 6.773438 9.144531 C 6.691406 9.144531 6.625 9.210938 6.625 9.292969 L 6.625 12.785156 C 6.625 12.867188 6.691406 12.933594 6.773438 12.933594 L 9.023438 12.933594 Z M 9.023438 12.9375 "/>
<path style=" stroke:none;fill-rule:nonzero;fill:rgb(36, 35, 49);fill-opacity:1;" d="M 9.808594 9.140625 L 10.375 9.140625 C 10.460938 9.140625 10.527344 9.207031 10.527344 9.292969 L 10.527344 12.785156 C 10.527344 12.867188 10.460938 12.9375 10.375 12.9375 L 9.808594 12.9375 C 9.722656 12.9375 9.65625 12.867188 9.65625 12.785156 L 9.65625 9.292969 C 9.65625 9.207031 9.722656 9.140625 9.808594 9.140625 Z M 9.808594 9.140625 "/>
<path style=" stroke:none;fill-rule:nonzero;fill:rgb(36, 35, 49);fill-opacity:1;" d="M 14.238281 9.140625 L 13.671875 9.140625 C 13.589844 9.140625 13.519531 9.207031 13.519531 9.289062 L 13.519531 11.363281 L 11.921875 9.207031 C 11.917969 9.199219 11.914062 9.195312 11.910156 9.191406 L 11.902344 9.179688 L 11.894531 9.175781 L 11.890625 9.175781 L 11.878906 9.167969 L 11.875 9.167969 L 11.867188 9.164062 L 11.234375 9.164062 C 11.148438 9.164062 11.082031 9.230469 11.082031 9.3125 L 11.082031 12.804688 C 11.082031 12.886719 11.148438 12.957031 11.234375 12.957031 L 11.800781 12.957031 C 11.882812 12.957031 11.949219 12.886719 11.949219 12.804688 L 11.949219 10.710938 L 13.550781 12.871094 C 13.5625 12.886719 13.574219 12.898438 13.589844 12.910156 L 13.597656 12.914062 L 13.601562 12.914062 L 13.609375 12.917969 L 13.632812 12.917969 C 13.648438 12.921875 13.660156 12.925781 13.675781 12.925781 L 14.238281 12.925781 C 14.320312 12.925781 14.386719 12.859375 14.386719 12.773438 L 14.386719 9.292969 C 14.390625 9.25 14.375 9.210938 14.34375 9.183594 C 14.316406 9.15625 14.277344 9.140625 14.238281 9.140625 Z M 14.238281 9.140625 "/>
</g>
</svg>
